<svg id="Layer_1" data-name="Layer 1" xmlns="http://www.w3.org/2000/svg" viewBox="0 0 847.89 847.89"><defs><style>.cls-1{fill:#f9ec8e;}.cls-2{fill:#231f20;}.cls-3{fill:#18264b;}.cls-4,.cls-5{fill:#fff;}.cls-5{font-size:34.07px;font-family:FranklinGothic-Medium, Franklin Gothic Medium;font-weight:500;}.cls-6{letter-spacing:-0.01em;}.cls-7{letter-spacing:-0.01em;}.cls-8{letter-spacing:-0.01em;}</style></defs><path class="cls-1" d="M425.2,847.64A422.55,422.55,0,0,1,260.76,36,422.55,422.55,0,0,1,589.63,814.44,419.75,419.75,0,0,1,425.2,847.64Z" transform="translate(-1.25 -1.25)"/><path class="cls-2" d="M425.2,4.25c232.48,0,420.94,188.47,420.94,421S657.68,846.14,425.2,846.14,4.25,657.68,4.25,425.2,192.72,4.25,425.2,4.25m0-3a424.05,424.05,0,0,0-165,814.57,424.05,424.05,0,0,0,330-781.25,421.26,421.26,0,0,0-165-33.32Z" transform="translate(-1.25 -1.25)"/><path class="cls-3" d="M425.2,800.29a375.2,375.2,0,0,1-146-720.71,375.19,375.19,0,0,1,292,691.23A372.73,372.73,0,0,1,425.2,800.29Z" transform="translate(-1.25 -1.25)"/><path class="cls-2" d="M425.2,50.61A374.69,374.69,0,0,1,571,770.35,374.69,374.69,0,0,1,279.39,80,372.3,372.3,0,0,1,425.2,50.61m0-1C217.76,49.61,49.61,217.76,49.61,425.2S217.76,800.79,425.2,800.79,800.79,632.63,800.79,425.2,632.63,49.61,425.2,49.61Z" transform="translate(-1.25 -1.25)"/><rect class="cls-1" x="234.17" y="490.29" width="378.94" height="23.49"/><polygon class="cls-1" points="234.17 490.29 301.05 513.78 260.18 573.09 156.16 573.09 234.17 490.29"/><polygon class="cls-1" points="613.11 490.29 546.24 513.78 587.1 573.09 691.13 573.09 613.11 490.29"/><polygon class="cls-1" points="546.24 544.93 301.05 544.93 316.28 523.21 531.01 523.21 546.24 544.93"/><rect class="cls-4" x="234.17" y="271.52" width="26.01" height="203.86"/><rect class="cls-4" x="304.76" y="271.52" width="26.01" height="203.86"/><rect class="cls-4" x="375.35" y="271.52" width="26.01" height="203.86"/><rect class="cls-4" x="445.93" y="271.52" width="26.01" height="203.86"/><rect class="cls-4" x="516.52" y="271.52" width="26.01" height="203.86"/><rect class="cls-4" x="587.1" y="271.52" width="26.01" height="203.86"/><rect class="cls-1" x="234.17" y="236.17" width="378.94" height="21.89"/><polygon class="cls-1" points="215.6 236.17 423.64 187.38 423.64 165.06 215.6 213.97 215.6 236.17"/><polygon class="cls-1" points="423.64 187.38 631.68 236.17 631.68 213.97 423.64 165.06 423.64 187.38"/><rect class="cls-1" x="215.6" y="217.19" width="44.58" height="22.2"/><rect class="cls-1" x="587.15" y="217.27" width="44.53" height="22.12"/><text class="cls-5" transform="translate(280.43 572.19)"><tspan class="cls-6">Х</tspan><tspan x="19.03" y="0">анты-Мансийский</tspan><tspan x="-115.59" y="24.9">т</tspan><tspan class="cls-7" x="-102.9" y="24.9">е</tspan><tspan x="-85.44" y="24.9">хнолого-педагогический </tspan><tspan class="cls-8" x="284.83" y="24.9">к</tspan><tspan x="301.74" y="24.9">олледж</tspan></text><path class="cls-4" d="M395.5,231.8h-4.18V206.57l-4.24,2.6v-4.32l4.24-2.82h4.18Z" transform="translate(-1.25 -1.25)"/><path class="cls-4" d="M412.8,217l0,.73a3.06,3.06,0,0,1-1.54,1.38,6.13,6.13,0,0,1-2.45.44,6.6,6.6,0,0,1-3.75-1.08,7.08,7.08,0,0,1-2.51-3.06,11.14,11.14,0,0,1-.89-4.58v0a11.53,11.53,0,0,1,1-4.93,6.87,6.87,0,0,1,2.85-3.12,9,9,0,0,1,4.5-1.06,8.79,8.79,0,0,1,4.48,1.08,7.05,7.05,0,0,1,2.84,3.16,11.71,11.71,0,0,1,1,5v0a15.67,15.67,0,0,1-.41,3.41,20.42,20.42,0,0,1-1.17,3.6c-.08.17-.16.36-.24.54s-.17.37-.27.54l-6.35,12.76h-4.5Zm.2-2.58a5.87,5.87,0,0,0,1.07-3.75v0A5.59,5.59,0,0,0,413,207a4.26,4.26,0,0,0-6.11,0,5.61,5.61,0,0,0-1.07,3.67v0a5.79,5.79,0,0,0,1.07,3.73,4.17,4.17,0,0,0,6.11,0Z" transform="translate(-1.25 -1.25)"/><path class="cls-4" d="M427.07,231.2a7.55,7.55,0,0,1-3.06-2.65,9.46,9.46,0,0,1-1.46-4.16h4.26a4.51,4.51,0,0,0,.8,2.09,3.65,3.65,0,0,0,1.58,1.21,5.93,5.93,0,0,0,2.29.4,4.45,4.45,0,0,0,3.21-1.1,4.11,4.11,0,0,0,1.15-3.11V223a5,5,0,0,0-1.09-3.45,3.88,3.88,0,0,0-3.07-1.21h-2.11v-4h2.11a3.5,3.5,0,0,0,2.7-1,4.16,4.16,0,0,0,1-2.95v-.92a3.58,3.58,0,0,0-1-2.73,4,4,0,0,0-2.87-1,4.35,4.35,0,0,0-1.91.4,3.7,3.7,0,0,0-1.42,1.23,5.64,5.64,0,0,0-.85,2.08H423a10.73,10.73,0,0,1,1.55-4.18,7.48,7.48,0,0,1,2.87-2.64,8.6,8.6,0,0,1,4-.9,8.24,8.24,0,0,1,6,2,7.56,7.56,0,0,1,2.11,5.71V210a6.45,6.45,0,0,1-1.21,3.89,6.87,6.87,0,0,1-3.42,2.42,6.07,6.07,0,0,1,3.78,2.39A8,8,0,0,1,440,223.4v.5a9.16,9.16,0,0,1-1,4.44,6.59,6.59,0,0,1-2.92,2.8,10,10,0,0,1-4.61,1A10.22,10.22,0,0,1,427.07,231.2Z" transform="translate(-1.25 -1.25)"/><path class="cls-4" d="M445.5,228.18l10.39-13.85a10.35,10.35,0,0,0,1.4-2.47,6.6,6.6,0,0,0,.5-2.38v0a3.65,3.65,0,0,0-1-2.77,4.2,4.2,0,0,0-3-1,4.08,4.08,0,0,0-2.95,1.08,4.85,4.85,0,0,0-1.37,3v0h-4.32v0a10.92,10.92,0,0,1,1.5-4.37,7.72,7.72,0,0,1,2.94-2.77,8.83,8.83,0,0,1,4.16-.95,10.3,10.3,0,0,1,4.54.91,6.42,6.42,0,0,1,2.87,2.65,8.47,8.47,0,0,1,1,4.2v0a9.43,9.43,0,0,1-.65,3.3,14.24,14.24,0,0,1-1.83,3.31L451,227.83H462.3v4H445.5Z" transform="translate(-1.25 -1.25)"/><path class="cls-2" d="M167,749l-2.61-2.09,9.49-28.21,3.29,2.65-8.09,22.4,20.15-12.7,3.29,2.65Zm15.65-10.6-11.44-9.21,2.33-2.9L185,735.52Z" transform="translate(-1.25 -1.25)"/><path class="cls-2" d="M167.27,717.45l-5.46-5a2.46,2.46,0,0,0-1.78-.73,2.59,2.59,0,0,0-1.71.94l0,0a2.74,2.74,0,0,0-.83,1.86,2.3,2.3,0,0,0,.87,1.72l5.46,5-2.37,2.62L156,719a2.17,2.17,0,0,0-1.48-.66,1.79,1.79,0,0,0-1.35.69,2.32,2.32,0,0,0-.7,1.58,1.93,1.93,0,0,0,.71,1.44l5.49,5-2.37,2.61-5.59-5.07a6.46,6.46,0,0,1-2.33-3.86,4.5,4.5,0,0,1,1.32-3.74,4.2,4.2,0,0,1,2.86-1.47,5.48,5.48,0,0,1,3.37,1,5.91,5.91,0,0,1-1.34-3.67,5.1,5.1,0,0,1,1.43-3.4l0,0a4.58,4.58,0,0,1,3.75-1.69,7.18,7.18,0,0,1,4.33,2.13l5.55,5ZM158,731.14l-2.88-2.62,13.39-14.76,2.89,2.62Z" transform="translate(-1.25 -1.25)"/><path class="cls-2" d="M143.53,717.92,132.58,707l2.5-2.5L146,715.42Zm-2.61-5.57-2.77-2.77L150.76,697l2.77,2.77Z" transform="translate(-1.25 -1.25)"/><path class="cls-2" d="M141.56,688.44a6.73,6.73,0,0,1-.31,4.08,10.44,10.44,0,0,1-2.83,3.87l-2.4,2.19a10.19,10.19,0,0,1-4.09,2.39,6.69,6.69,0,0,1-4.06-.1,10.25,10.25,0,0,1-6-6.57,6.65,6.65,0,0,1,.28-4.06A10.33,10.33,0,0,1,125,686.4l2.45-2.22a10.35,10.35,0,0,1,4.1-2.41,6.8,6.8,0,0,1,4.07.1,10.17,10.17,0,0,1,6,6.57Zm-8.08-3a5.31,5.31,0,0,0-3.43,1.59l-2.44,2.22a5.24,5.24,0,0,0-1.91,3.25,4.64,4.64,0,0,0,4.27,4.71,5.26,5.26,0,0,0,3.42-1.59l2.44-2.21a5.32,5.32,0,0,0,1.92-3.26,4.57,4.57,0,0,0-4.27-4.71Z" transform="translate(-1.25 -1.25)"/><path class="cls-2" d="M106.8,677.41l-2.47-3,15.48-12.55,2.47,3ZM119.7,680l-7.71-9.5,2.75-2.23,7.7,9.51Zm-5,7.17-2.47-3,15.49-12.56,2.46,3Z" transform="translate(-1.25 -1.25)"/><path class="cls-2" d="M113.84,655a6.69,6.69,0,0,1-.76,4,10.42,10.42,0,0,1-3.23,3.53l-2.64,1.9a10.17,10.17,0,0,1-4.32,1.93,6.68,6.68,0,0,1-4-.56,9.08,9.08,0,0,1-3.42-3,9.17,9.17,0,0,1-1.78-4.18,6.66,6.66,0,0,1,.74-4,10.24,10.24,0,0,1,3.19-3.51l2.68-1.93a10.32,10.32,0,0,1,4.34-1.94,6.73,6.73,0,0,1,4,.56,10.17,10.17,0,0,1,5.19,7.19Zm-7.69-3.83a5.28,5.28,0,0,0-3.59,1.2l-2.68,1.93a5.28,5.28,0,0,0-2.25,3,4,4,0,0,0,.83,3.32,4.08,4.08,0,0,0,2.89,1.84,5.27,5.27,0,0,0,3.57-1.19l2.68-1.94a5.32,5.32,0,0,0,2.27-3,4.57,4.57,0,0,0-3.72-5.15Z" transform="translate(-1.25 -1.25)"/><path class="cls-2" d="M79.08,637.89,77.21,635,94,624.26l1.9,3L84.05,634.8,85,634l10.18-.72,1.25,2-5,8.91-1.14.5,11.88-7.55,1.9,3-16.82,10.7-1.87-2.94L91.54,637Z" transform="translate(-1.25 -1.25)"/><path class="cls-2" d="M67.6,618l-1.9-3.43,17.43-9.66,1.9,3.43Zm6.1,11-1.9-3.43,17.44-9.66,1.9,3.43Zm6.14-6.19-5.93-10.7L77,610.39l5.93,10.7Z" transform="translate(-1.25 -1.25)"/><path class="cls-2" d="M78.44,597.18A6.75,6.75,0,0,1,77,601a10.57,10.57,0,0,1-3.81,2.91l-2.92,1.41a10.08,10.08,0,0,1-4.6,1.14,6.69,6.69,0,0,1-3.87-1.25,10.26,10.26,0,0,1-3.86-8,6.71,6.71,0,0,1,1.42-3.81,10.1,10.1,0,0,1,3.76-2.89l3-1.44a10.34,10.34,0,0,1,4.62-1.15,6.74,6.74,0,0,1,3.88,1.25,10.21,10.21,0,0,1,3.85,8Zm-6.9-5.12a5.34,5.34,0,0,0-3.74.56l-3,1.43a5.26,5.26,0,0,0-2.74,2.58,4.62,4.62,0,0,0,2.76,5.72,5.18,5.18,0,0,0,3.72-.55l3-1.43a5.39,5.39,0,0,0,2.76-2.58,4.56,4.56,0,0,0-2.76-5.73Z" transform="translate(-1.25 -1.25)"/><path class="cls-2" d="M69.47,577.83a6.92,6.92,0,0,1-1.66,3.93,10.59,10.59,0,0,1-4.08,2.81l-2.07.87a11.75,11.75,0,0,1-5,1,7.06,7.06,0,0,1-4-1.42,8.86,8.86,0,0,1-2.76-3.76,7.25,7.25,0,0,1-.49-4.42,7.76,7.76,0,0,1,2.3-3.88,15.33,15.33,0,0,1,4.87-3l1.2-.5,5.18,12.4L60,583.07l-3.74-9a6.74,6.74,0,0,0-3,2.62,3.58,3.58,0,0,0-.13,3.21,4.28,4.28,0,0,0,2.68,2.62,6.28,6.28,0,0,0,4.28-.47l2.34-1a5.17,5.17,0,0,0,3-2.66,5,5,0,0,0-.2-3.94,6.38,6.38,0,0,0-1.35-2,6.7,6.7,0,0,0-2-1.41l1.38-3.37A10.58,10.58,0,0,1,66.46,570a9.3,9.3,0,0,1,2.15,3.12A9.92,9.92,0,0,1,69.47,577.83Z" transform="translate(-1.25 -1.25)"/><path class="cls-2" d="M36.35,543.2l26,.4a5.85,5.85,0,0,1,2.43.47,4.29,4.29,0,0,1,1.66,1.4,9.18,9.18,0,0,1,1.16,2.45l.25.74-3.58,1.18-.24-.75a3.07,3.07,0,0,0-1-1.52,3.6,3.6,0,0,0-1.8-.59H37.59ZM41.85,560l-1.25-3.8L55.15,545l4.71.74Z" transform="translate(-1.25 -1.25)"/><path class="cls-2" d="M32,527.57l-1-3.78,19.24-5.2,1,3.78Zm14.64,5.26a6,6,0,0,1-2,3.12,9.8,9.8,0,0,1-3.89,1.94l-5.6,1.51-1-3.78,5.72-1.55a4.08,4.08,0,0,0,2.54-1.65,3.41,3.41,0,0,0,.29-2.82,5.07,5.07,0,0,0-2-3.1,4,4,0,0,0-3.38-.38l-1.95.53-.32-1.19L37,525a10.12,10.12,0,0,1,6.32,0,5.39,5.39,0,0,1,3.28,3.85A7.81,7.81,0,0,1,46.68,532.83Z" transform="translate(-1.25 -1.25)"/><path class="cls-2" d="M47.15,507.52a5.33,5.33,0,0,1-2,2.52l-4.14.59a4.66,4.66,0,0,0,2-.9,3.24,3.24,0,0,0,1.08-1.59,4.42,4.42,0,0,0,0-2.18,3.84,3.84,0,0,0-1.78-2.69,4.85,4.85,0,0,0-3.48-.36l-4.23.9a4.94,4.94,0,0,0-3.1,1.74,3.82,3.82,0,0,0-.57,3.2,4.64,4.64,0,0,0,.89,2,3.19,3.19,0,0,0,1.61,1,4.61,4.61,0,0,0,2.19,0L32,513a7,7,0,0,1-3.13-1.75,5.88,5.88,0,0,1-1.6-3,6.68,6.68,0,0,1,.18-3.74,5.91,5.91,0,0,1,2.24-2.82A10.89,10.89,0,0,1,33.8,500l4.25-.9a10.69,10.69,0,0,1,4.41-.11,6.07,6.07,0,0,1,3.19,1.74,7.11,7.11,0,0,1,1.7,3.45A5.92,5.92,0,0,1,47.15,507.52Zm-17.74,9.56-.81-3.83L56,507.45l.81,3.83Z" transform="translate(-1.25 -1.25)"/><path class="cls-2" d="M43.46,489.09a7.09,7.09,0,0,1-2.55,3.42,10.68,10.68,0,0,1-4.64,1.76l-2.22.34a11.74,11.74,0,0,1-5.14-.2,7.06,7.06,0,0,1-3.59-2.35,8.88,8.88,0,0,1-1.78-4.31,7.24,7.24,0,0,1,.58-4.4,7.72,7.72,0,0,1,3.15-3.22,15.19,15.19,0,0,1,5.46-1.79l1.29-.2,2.06,13.28L33,491.9l-1.49-9.6a6.69,6.69,0,0,0-3.56,1.83,3.55,3.55,0,0,0-.89,3.08,4.25,4.25,0,0,0,2,3.18,6.26,6.26,0,0,0,4.27.57l2.51-.39a5.19,5.19,0,0,0,3.55-1.87,5,5,0,0,0,.74-3.87,6.26,6.26,0,0,0-.83-2.26,7,7,0,0,0-1.65-1.86l2.14-2.94a10.78,10.78,0,0,1,2.69,3,9.59,9.59,0,0,1,1.34,3.54A10.06,10.06,0,0,1,43.46,489.09Z" transform="translate(-1.25 -1.25)"/><path class="cls-2" d="M28.75,459.15l-8.71-4-.42-4.51L32,457.24ZM21,465.37l-.36-3.9,19.84-1.86.37,3.9Zm1,10.88-.42-4.52,7.81-5.59L33,467.41Zm7.36-7-1.22-13.08,3.52-.33,1.22,13.08Zm2.38-10.52L29.48,456l9.88-8.46.47,5ZM30.7,469.07l1.74-3,9.06,4.5.47,5Z" transform="translate(-1.25 -1.25)"/><path class="cls-2" d="M19.1,432.78,19,428.87l19.93-.53.11,3.91Zm.2,7.56-.24-8.86,3.54-.1.23,8.87Zm16.55,5.33,0-.46a2.36,2.36,0,0,0-.7-1.79,3.66,3.66,0,0,0-2-.78,23.17,23.17,0,0,0-3.68-.12l-10.08.26-.1-3.91,11.38-.31a8.28,8.28,0,0,1,5.27,1.28,4.81,4.81,0,0,1,1.88,4l0,.46Zm-.45-16.88-.11-3.91,8.55-.23.1,3.92Zm.47,17.59-.51-19.18,3.53-.09.51,19.18Zm0,0-.11-3.92,8.54-.22.11,3.91Z" transform="translate(-1.25 -1.25)"/><path class="cls-2" d="M38.28,417.65a6.91,6.91,0,0,1-3.13,2.89,10.55,10.55,0,0,1-4.88.89L28,421.36a11.76,11.76,0,0,1-5-1.14,7.08,7.08,0,0,1-3.11-3,8.93,8.93,0,0,1-1-4.56,7.2,7.2,0,0,1,1.38-4.23A7.77,7.77,0,0,1,24,405.88a15.46,15.46,0,0,1,5.69-.76l1.31,0-.4,13.43-3.14-.09.28-9.71a6.72,6.72,0,0,0-3.83,1.14,3.54,3.54,0,0,0-1.43,2.87,4.21,4.21,0,0,0,1.35,3.49,6.28,6.28,0,0,0,4.09,1.34l2.54.07a5.17,5.17,0,0,0,3.84-1.19,5,5,0,0,0,1.43-3.66,6.19,6.19,0,0,0-.41-2.38A6.8,6.8,0,0,0,34,408.34l2.65-2.5a11.06,11.06,0,0,1,2.1,3.39,9.4,9.4,0,0,1,.66,3.73A9.94,9.94,0,0,1,38.28,417.65Z" transform="translate(-1.25 -1.25)"/><path class="cls-2" d="M19.81,398.74l.33-3.91L40,396.52l-.33,3.9Zm1.06-12.55.33-3.91L41.06,384l-.33,3.91ZM28.36,397l1-12.19,3.52.3-1,12.19Z" transform="translate(-1.25 -1.25)"/><path class="cls-2" d="M43.46,365.85l-14-2,.56-.39,12.16,11.42-.48,3.37L22,375.43l.55-3.84,14.33,2.05-.56.38-12.48-11.5.48-3.32L44,362Z" transform="translate(-1.25 -1.25)"/><path class="cls-2" d="M45,352.79a6.93,6.93,0,0,1-3.57,2.33,10.56,10.56,0,0,1-5,.06l-2.2-.45a11.69,11.69,0,0,1-4.76-2,7,7,0,0,1-2.56-3.44,8.92,8.92,0,0,1-.19-4.66,7.2,7.2,0,0,1,2.07-3.93,7.74,7.74,0,0,1,4.06-1.94,15.5,15.5,0,0,1,5.74.2l1.28.26-2.63,13.18-3.09-.62,1.9-9.53a6.67,6.67,0,0,0-4,.49,3.52,3.52,0,0,0-1.9,2.59A4.24,4.24,0,0,0,31,349a6.3,6.3,0,0,0,3.81,2l2.49.5a5.19,5.19,0,0,0,4-.54,4.94,4.94,0,0,0,2-3.37,6.11,6.11,0,0,0,0-2.41,6.92,6.92,0,0,0-.9-2.32l3-2a11,11,0,0,1,1.51,3.69,9.32,9.32,0,0,1,0,3.79A10,10,0,0,1,45,352.79Z" transform="translate(-1.25 -1.25)"/><path class="cls-2" d="M32.6,320.45l1.08-3.77,19.16,5.52L51.75,326Zm.67-2.35,3.39-11.75,3.58,1-3.39,11.76Zm2.82-9.76,1.08-3.76,19.15,5.52-1.08,3.76Z" transform="translate(-1.25 -1.25)"/><path class="cls-2" d="M39.28,298l1.3-3.7L67,303.59l-1.3,3.69Zm20.13,1a5.25,5.25,0,0,1-3.06,1.08l-3.84-1.63a4.65,4.65,0,0,0,2.21.29,3.21,3.21,0,0,0,1.75-.8,4.33,4.33,0,0,0,1.15-1.84,3.83,3.83,0,0,0-.12-3.23,4.74,4.74,0,0,0-2.79-2.11l-4.07-1.43a5,5,0,0,0-3.57-.12,3.83,3.83,0,0,0-2.13,2.44,4.39,4.39,0,0,0-.27,2.15,3.11,3.11,0,0,0,.84,1.71,4.5,4.5,0,0,0,1.87,1.14l-3.76-.88a7,7,0,0,1-1.77-3.13,5.88,5.88,0,0,1,.18-3.37,6.7,6.7,0,0,1,2.09-3.11A6,6,0,0,1,47.5,285a10.9,10.9,0,0,1,4.41.71L56,287.1a10.76,10.76,0,0,1,3.83,2.2,6,6,0,0,1,1.82,3.14,7,7,0,0,1-.34,3.83A5.88,5.88,0,0,1,59.41,299Z" transform="translate(-1.25 -1.25)"/><path class="cls-2" d="M65.74,281.6a6.7,6.7,0,0,1-3.82,1.47,10.5,10.5,0,0,1-4.71-.9l-3-1.24a10.25,10.25,0,0,1-3.91-2.67,6.69,6.69,0,0,1-1.64-3.72,10.26,10.26,0,0,1,3.39-8.2,6.69,6.69,0,0,1,3.79-1.48,10.31,10.31,0,0,1,4.65.88L63.55,267a10.29,10.29,0,0,1,3.93,2.67,6.8,6.8,0,0,1,1.65,3.73,10.22,10.22,0,0,1-3.39,8.2ZM65,273a5.33,5.33,0,0,0-2.91-2.42l-3-1.26a5.31,5.31,0,0,0-3.75-.34,4.62,4.62,0,0,0-2.43,5.88,5.28,5.28,0,0,0,2.89,2.41l3,1.26a5.3,5.3,0,0,0,3.77.34,4,4,0,0,0,2.4-2.44A4,4,0,0,0,65,273Z" transform="translate(-1.25 -1.25)"/><path class="cls-2" d="M54.17,246l1.73-3.52,28.28,13.85-1.72,3.52Zm17.77,17.72a8.77,8.77,0,0,1-5.61-1.06l-4.52-2.21a8.73,8.73,0,0,1-4.27-3.78,5.19,5.19,0,0,1,.15-4.72,4.27,4.27,0,0,1,3.39-2.48,9.59,9.59,0,0,1,5.51,1.22l4.47,2.18a10,10,0,0,1,4.41,3.64,4.24,4.24,0,0,1,.13,4.21A5.12,5.12,0,0,1,71.94,263.73ZM72.7,256A4.27,4.27,0,0,0,70.57,254l-4.52-2.21a4.22,4.22,0,0,0-2.81-.49,2.74,2.74,0,0,0-1.85,1.59,2.31,2.31,0,0,0,0,2.21,4.66,4.66,0,0,0,2.15,1.83l4.52,2.21a4.67,4.67,0,0,0,2.79.59,2.31,2.31,0,0,0,1.76-1.35A2.74,2.74,0,0,0,72.7,256Zm4.57-3.1a10,10,0,0,1-5.58-1.26l-4.47-2.19a9.64,9.64,0,0,1-4.34-3.6,4.22,4.22,0,0,1-.11-4.2,5.15,5.15,0,0,1,3.63-3,8.73,8.73,0,0,1,5.6,1l4.52,2.21a8.82,8.82,0,0,1,4.28,3.79,5.12,5.12,0,0,1-.13,4.73A4.26,4.26,0,0,1,77.27,252.85Zm-.3-5.63a4.69,4.69,0,0,0-2.17-1.85l-4.52-2.21a4.57,4.57,0,0,0-2.77-.57,2.29,2.29,0,0,0-1.74,1.35,2.74,2.74,0,0,0-.11,2.44,4.2,4.2,0,0,0,2.1,1.92l4.52,2.21a4.25,4.25,0,0,0,2.84.5A2.7,2.7,0,0,0,77,249.43,2.28,2.28,0,0,0,77,247.22Z" transform="translate(-1.25 -1.25)"/><path class="cls-2" d="M86.8,237.3a6.93,6.93,0,0,1-4.12,1.09A10.53,10.53,0,0,1,78,236.88l-2-1.11a11.77,11.77,0,0,1-3.89-3.36,7.07,7.07,0,0,1-1.35-4.08,9,9,0,0,1,1.29-4.48,7.23,7.23,0,0,1,3.2-3.08,7.77,7.77,0,0,1,4.47-.56,15.39,15.39,0,0,1,5.38,2l1.14.65-6.66,11.67L76.85,233l4.81-8.44a6.76,6.76,0,0,0-3.92-.78,3.56,3.56,0,0,0-2.62,1.85,4.27,4.27,0,0,0-.44,3.72,6.33,6.33,0,0,0,3,3.11l2.2,1.25a5.17,5.17,0,0,0,3.95.75,5,5,0,0,0,3-2.56,6.31,6.31,0,0,0,.75-2.29,7,7,0,0,0-.13-2.49l3.51-1a10.94,10.94,0,0,1,.26,4,9.42,9.42,0,0,1-1.16,3.6A9.92,9.92,0,0,1,86.8,237.3Z" transform="translate(-1.25 -1.25)"/><path class="cls-2" d="M97.38,219.49a6.92,6.92,0,0,1-4.08.88,9.87,9.87,0,0,1-4.49-1.67L86,216.93a9.84,9.84,0,0,1-3.35-3.36,6.83,6.83,0,0,1-.87-4.06,10,10,0,0,1,1.66-4.46,10.9,10.9,0,0,1,1.9-2.27,8.83,8.83,0,0,1,2.24-1.49,6.68,6.68,0,0,1,2.44-.6l.61,3.74a5.89,5.89,0,0,0-2.31.87A5.58,5.58,0,0,0,86.65,207a4.69,4.69,0,0,0-.83,3.64,4.87,4.87,0,0,0,2.33,3l2.77,1.77a5.06,5.06,0,0,0,3.74.93,4.64,4.64,0,0,0,3-2.27,5.3,5.3,0,0,0,.82-2.31,5.63,5.63,0,0,0-.27-2.5l3.82-.9a7,7,0,0,1,.44,2.46,8.67,8.67,0,0,1-.44,2.66,11.37,11.37,0,0,1-1.26,2.64A9.88,9.88,0,0,1,97.38,219.49Z" transform="translate(-1.25 -1.25)"/><path class="cls-2" d="M108.05,203.42a6.9,6.9,0,0,1-4.12.68,10.07,10.07,0,0,1-4.41-1.89l-2.67-1.91a9.66,9.66,0,0,1-3.17-3.52,6.83,6.83,0,0,1-.68-4.1,9.93,9.93,0,0,1,1.89-4.37,11,11,0,0,1,2-2.17,8.83,8.83,0,0,1,2.32-1.38,6.66,6.66,0,0,1,2.47-.48l.42,3.77a6,6,0,0,0-2.35.75,5.83,5.83,0,0,0-1.8,1.62,4.77,4.77,0,0,0-1,3.6,4.9,4.9,0,0,0,2.19,3.09L101.8,199a5.08,5.08,0,0,0,3.69,1.11,4.63,4.63,0,0,0,3.09-2.12,5.18,5.18,0,0,0,.93-2.26,5.78,5.78,0,0,0-.14-2.51l3.86-.72a6.94,6.94,0,0,1,.31,2.49,8.67,8.67,0,0,1-.56,2.63,11.21,11.21,0,0,1-1.4,2.58A9.78,9.78,0,0,1,108.05,203.42Z" transform="translate(-1.25 -1.25)"/><path class="cls-2" d="M125.72,181.23l-11.07-8.83.68-.05,4.7,16L117.91,191,102.34,178.6l2.42-3,11.32,9-.68.05-4.93-16.24,2.09-2.63,15.58,12.41Z" transform="translate(-1.25 -1.25)"/><path class="cls-2" d="M133.49,170.92a6.79,6.79,0,0,1-4.09.12,10.42,10.42,0,0,1-4.15-2.4l-2.42-2.16a10.3,10.3,0,0,1-2.82-3.82,6.64,6.64,0,0,1-.31-4,10.28,10.28,0,0,1,5.9-6.62,6.65,6.65,0,0,1,4.07-.14,10.23,10.23,0,0,1,4.11,2.36l2.46,2.2a10.25,10.25,0,0,1,2.83,3.83,6.67,6.67,0,0,1,.32,4.06,9,9,0,0,1-2.19,4A9.2,9.2,0,0,1,133.49,170.92Zm2.09-8.34a5.33,5.33,0,0,0-2-3.25l-2.46-2.2a5.23,5.23,0,0,0-3.43-1.55,4.62,4.62,0,0,0-4.23,4.74,5.21,5.21,0,0,0,1.93,3.23l2.46,2.2a5.32,5.32,0,0,0,3.44,1.57,4.58,4.58,0,0,0,4.24-4.74Z" transform="translate(-1.25 -1.25)"/><path class="cls-2" d="M131.91,144.1l2.77-2.77,14.11,14.08L146,158.19Zm7.65,4.19,8.64-8.66,2.51,2.5-8.65,8.66Zm1.25-13.1,2.77-2.78,14.11,14.09-2.77,2.77Z" transform="translate(-1.25 -1.25)"/><path class="cls-2" d="M161.83,125.63a4.21,4.21,0,0,0-2.81-1.57,4,4,0,0,0-2.94,1.17,7.52,7.52,0,0,0-1.49,1.83,7.18,7.18,0,0,0-.83,2.11l-3.44.46a7.59,7.59,0,0,1,.81-3.58,10.68,10.68,0,0,1,2.56-3.31,9.67,9.67,0,0,1,3.74-2.19,6.06,6.06,0,0,1,3.7.1,8.2,8.2,0,0,1,3.36,2.36l8.55,9.54L170.27,135Zm-.13,15.42a5.7,5.7,0,0,1-4.45-2.24,5.58,5.58,0,0,1-1.72-4.41,7.48,7.48,0,0,1,2.77-4.48l4.22-3.78,2.3,2.17-4.4,3.95a3.31,3.31,0,0,0-1.25,2,2.63,2.63,0,0,0,.82,2,2.58,2.58,0,0,0,2.26,1,5.15,5.15,0,0,0,2.76-1.5,8.89,8.89,0,0,0,2.18-2.59,1.61,1.61,0,0,0-.18-1.86l2.17,1.82a4.55,4.55,0,0,1-.07,1.84,5.42,5.42,0,0,1-.78,1.75,8.88,8.88,0,0,1-1.5,1.7A8.47,8.47,0,0,1,161.7,141.05Z" transform="translate(-1.25 -1.25)"/><path class="cls-2" d="M174,127a2.66,2.66,0,0,0,1-2.59,7.71,7.71,0,0,0-1.81-3.62l-6.91-8.59,3.06-2.46,7.24,9a11.83,11.83,0,0,1,2.27,4.1,6.25,6.25,0,0,1,0,3.73,6.47,6.47,0,0,1-2.24,3.07l-.3.25Zm-5.83-16.33,7.62-6.12,2.34,2.9-7.62,6.12Zm6-4.82,3.05-2.46,12.49,15.54-3.06,2.46Z" transform="translate(-1.25 -1.25)"/><path class="cls-2" d="M182.74,99.24,185.92,97l11.62,16.19-3.18,2.29Zm11,12.06,5.71-4.1a2.5,2.5,0,0,0,1.12-1.72,2.74,2.74,0,0,0-.57-2,3.16,3.16,0,0,0-1.1-1,2.49,2.49,0,0,0-1.31-.24,2.75,2.75,0,0,0-1.33.53l-5.71,4.09-2.17-3,5.59-4a7.75,7.75,0,0,1,3.42-1.46,5.91,5.91,0,0,1,3.31.41,6.47,6.47,0,0,1,2.69,2.26,6.57,6.57,0,0,1,1.27,3.25,6,6,0,0,1-.67,3.26,7.94,7.94,0,0,1-2.49,2.78l-5.59,4Z" transform="translate(-1.25 -1.25)"/><path class="cls-2" d="M200.33,86.82l3.31-2.11,10.71,16.82-3.31,2.1Zm6.56,5.75L217.21,86l1.9,3-10.32,6.57ZM211,80.05l3.31-2.1L225,94.76l-3.3,2.1Z" transform="translate(-1.25 -1.25)"/><path class="cls-2" d="M232.37,89.61a6.75,6.75,0,0,1-3.9-1.21,10.47,10.47,0,0,1-3.14-3.62l-1.59-2.84a10,10,0,0,1-1.42-4.51,6.65,6.65,0,0,1,1-3.94,10.28,10.28,0,0,1,7.74-4.34A6.67,6.67,0,0,1,235,70.33a10.27,10.27,0,0,1,3.12,3.58l1.61,2.88a10.18,10.18,0,0,1,1.43,4.53,6.7,6.7,0,0,1-1,4,10.15,10.15,0,0,1-7.74,4.34Zm4.69-7.21a5.33,5.33,0,0,0-.79-3.7l-1.61-2.88a5.23,5.23,0,0,0-2.74-2.58,4.62,4.62,0,0,0-5.54,3.11,5.23,5.23,0,0,0,.78,3.68l1.61,2.88a5.3,5.3,0,0,0,2.75,2.6,4.56,4.56,0,0,0,5.54-3.11Z" transform="translate(-1.25 -1.25)"/><path class="cls-2" d="M239.53,63.83l3.5-1.74,8.89,17.84-3.5,1.75Zm1.72-.85L251,58.14l1.66,3.33-9.71,4.84Z" transform="translate(-1.25 -1.25)"/><path class="cls-2" d="M264.48,73.07a6.7,6.7,0,0,1-3.77-1.57,10.47,10.47,0,0,1-2.79-3.9l-1.32-3a10.22,10.22,0,0,1-1-4.63A6.72,6.72,0,0,1,257,56.17a9.15,9.15,0,0,1,3.65-2.72,9.05,9.05,0,0,1,4.46-.87,6.63,6.63,0,0,1,3.76,1.54A10.2,10.2,0,0,1,271.63,58L273,61a10.35,10.35,0,0,1,1,4.65,6.75,6.75,0,0,1-1.38,3.84,10.21,10.21,0,0,1-8.11,3.59Zm5.34-6.74a5.32,5.32,0,0,0-.43-3.75l-1.34-3a5.24,5.24,0,0,0-2.49-2.83,4.63,4.63,0,0,0-5.81,2.58,5.22,5.22,0,0,0,.43,3.73l1.34,3A5.33,5.33,0,0,0,264,68.91a4.56,4.56,0,0,0,5.81-2.58Z" transform="translate(-1.25 -1.25)"/><path class="cls-2" d="M293.63,61.16A6.7,6.7,0,0,1,290,59.29a10.45,10.45,0,0,1-2.46-4.12l-1.07-3.06a10.39,10.39,0,0,1-.61-4.7,6.69,6.69,0,0,1,1.69-3.7,10.29,10.29,0,0,1,8.38-2.92,6.68,6.68,0,0,1,3.62,1.85A10.18,10.18,0,0,1,302,46.7l1.08,3.12a10.19,10.19,0,0,1,.62,4.71A6.72,6.72,0,0,1,302,58.24a8.88,8.88,0,0,1-3.85,2.42A9,9,0,0,1,293.63,61.16Zm5.87-6.27a5.29,5.29,0,0,0-.13-3.78L298.29,48A5.2,5.2,0,0,0,296,45a4,4,0,0,0-3.41-.16A4,4,0,0,0,290,47.06a5.23,5.23,0,0,0,.12,3.76l1.09,3.12a5.35,5.35,0,0,0,2.25,3,4.57,4.57,0,0,0,6-2.09Z" transform="translate(-1.25 -1.25)"/><path class="cls-2" d="M305.8,38.81a9.52,9.52,0,0,1-.33-4.59,6,6,0,0,1,2-3.37,11.52,11.52,0,0,1,4.32-2.21,7.57,7.57,0,0,0,1.69-.72,2.25,2.25,0,0,0,.89-.87,1.36,1.36,0,0,0,.08-1l3.49-1A5.24,5.24,0,0,1,318,28a4.34,4.34,0,0,1-1.63,2.24A10.28,10.28,0,0,1,313,31.76,7.36,7.36,0,0,0,310.4,33a3.59,3.59,0,0,0-1.25,1.88,4.75,4.75,0,0,0,.12,2.51l2.14,7.46-3.58,1Zm8.4,15.57a6.69,6.69,0,0,1-3.52-2.08,10.48,10.48,0,0,1-2.23-4.24l-.68-2.38L309.31,41a5.34,5.34,0,0,1,1-3.81A6.94,6.94,0,0,1,314,34.94a7.74,7.74,0,0,1,4.14-.14,6.49,6.49,0,0,1,3.27,2.12,11.3,11.3,0,0,1,2.12,4.22l.7,2.44a10.22,10.22,0,0,1,.35,4.74,6.8,6.8,0,0,1-1.89,3.61,10.2,10.2,0,0,1-8.53,2.45Zm6.21-5.93a5.28,5.28,0,0,0,.09-3.79l-.7-2.44a5.19,5.19,0,0,0-2.08-3.14,4.09,4.09,0,0,0-3.41-.34,4,4,0,0,0-2.69,2.09,5.34,5.34,0,0,0-.09,3.77l.7,2.43a5.32,5.32,0,0,0,2.08,3.17,4.57,4.57,0,0,0,6.1-1.75Z" transform="translate(-1.25 -1.25)"/><path class="cls-2" d="M327.17,30.88,331,30l6.23,27.34-3.82.87ZM337,48.46a5.19,5.19,0,0,1-2.55-2l-.66-4.12a4.72,4.72,0,0,0,.93,2,3.28,3.28,0,0,0,1.61,1.06,4.35,4.35,0,0,0,2.18,0,3.85,3.85,0,0,0,2.67-1.82,4.82,4.82,0,0,0,.29-3.48l-1-4.22a5,5,0,0,0-1.79-3.07,3.78,3.78,0,0,0-3.2-.51,4.46,4.46,0,0,0-2,.92,3.09,3.09,0,0,0-1,1.61,4.78,4.78,0,0,0,0,2.19l-1.25-3.65a7,7,0,0,1,1.71-3.16A5.9,5.9,0,0,1,336,28.57a6.62,6.62,0,0,1,3.74.13,6,6,0,0,1,2.86,2.19A11.07,11.07,0,0,1,344.34,35l1,4.23a10.47,10.47,0,0,1,.18,4.41,6,6,0,0,1-1.69,3.21,7,7,0,0,1-3.42,1.75A5.77,5.77,0,0,1,337,48.46Z" transform="translate(-1.25 -1.25)"/><path class="cls-2" d="M361.1,31.45a4.23,4.23,0,0,0-1.55-2.83,3.92,3.92,0,0,0-3.1-.56,7.4,7.4,0,0,0-2.24.75,7,7,0,0,0-1.83,1.35l-3.15-1.45a7.48,7.48,0,0,1,2.59-2.6,10.6,10.6,0,0,1,3.93-1.44,9.55,9.55,0,0,1,4.33.14,6.13,6.13,0,0,1,3.08,2.05,8.08,8.08,0,0,1,1.58,3.79l2.17,12.62-3.67.63Zm-8.31,13a5.71,5.71,0,0,1-2.58-4.27,5.59,5.59,0,0,1,.89-4.65,7.44,7.44,0,0,1,4.73-2.31l5.58-1,.8,3.06-5.83,1a3.38,3.38,0,0,0-2.15,1.06,2.65,2.65,0,0,0-.39,2.18,2.57,2.57,0,0,0,1.37,2,5.23,5.23,0,0,0,3.15.21,9,9,0,0,0,3.22-1,1.58,1.58,0,0,0,.83-1.67l.87,2.7a4.59,4.59,0,0,1-1,1.52,5.38,5.38,0,0,1-1.6,1.06,8.65,8.65,0,0,1-2.17.64A8.52,8.52,0,0,1,352.79,44.44Z" transform="translate(-1.25 -1.25)"/><path class="cls-2" d="M375,41.79a6.11,6.11,0,0,1-2.78-1.71,7.13,7.13,0,0,1-1.61-3l3.78-.46a2.54,2.54,0,0,0,1.36,1.58,4.43,4.43,0,0,0,2.5.32,4.09,4.09,0,0,0,2.49-1,2.52,2.52,0,0,0,.67-2.17v0a2.07,2.07,0,0,0-.85-1.53,2.85,2.85,0,0,0-1.95-.34l-3.11.37-.4-3.32,3.11-.37a1.7,1.7,0,0,0,1.32-.76,2.57,2.57,0,0,0,.3-1.72v0a2.54,2.54,0,0,0-1-1.9,3.31,3.31,0,0,0-2.33-.44,4.1,4.1,0,0,0-2.2.89,3,3,0,0,0-1,1.86l-3.75.45a7.09,7.09,0,0,1,2-4.64,7.85,7.85,0,0,1,4.76-2.12,7.93,7.93,0,0,1,5.16.79,4.72,4.72,0,0,1,2.24,3.71v0a5,5,0,0,1-.45,2.9,4.61,4.61,0,0,1-2,2A4.09,4.09,0,0,1,384,32.17a4.53,4.53,0,0,1,1.3,2.85v0a5.58,5.58,0,0,1-1.37,4.75A8.27,8.27,0,0,1,378.69,42,9.3,9.3,0,0,1,375,41.79Z" transform="translate(-1.25 -1.25)"/><path class="cls-2" d="M393.84,39.47a6.74,6.74,0,0,1-3-2.76,10.59,10.59,0,0,1-1.29-4.62l-.22-3.24a10.21,10.21,0,0,1,.65-4.69,6.72,6.72,0,0,1,2.6-3.13,10.29,10.29,0,0,1,8.86-.61,6.68,6.68,0,0,1,3,2.74,10.1,10.1,0,0,1,1.29,4.56L406,31a10.43,10.43,0,0,1-.65,4.71,6.74,6.74,0,0,1-2.61,3.13,8.86,8.86,0,0,1-4.35,1.32A9,9,0,0,1,393.84,39.47Zm7.32-4.5a5.35,5.35,0,0,0,.88-3.68l-.23-3.3a5.18,5.18,0,0,0-1.37-3.5,4.62,4.62,0,0,0-6.34.43,5.23,5.23,0,0,0-.87,3.66l.23,3.3a5.3,5.3,0,0,0,1.36,3.52,4.56,4.56,0,0,0,6.34-.43Z" transform="translate(-1.25 -1.25)"/><path class="cls-2" d="M411.43,19.21l3.9-.06.32,19.93-3.9.06ZM414,35.57l7.37-.12a2.42,2.42,0,0,0,1.8-.68,2.52,2.52,0,0,0,.6-1.85v-.06a2.75,2.75,0,0,0-.66-1.93,2.36,2.36,0,0,0-1.82-.66l-7.37.12-.06-3.54,7.37-.11a2.21,2.21,0,0,0,1.53-.53,1.85,1.85,0,0,0,.52-1.43,2.35,2.35,0,0,0-.57-1.63,1.91,1.91,0,0,0-1.51-.56l-7.41.12-.06-3.54,7.55-.12a6.49,6.49,0,0,1,4.34,1.23,4.54,4.54,0,0,1,1.6,3.63,4.11,4.11,0,0,1-1.09,3A5.42,5.42,0,0,1,423,28.49a6,6,0,0,1,3.49,1.76,5.09,5.09,0,0,1,1.28,3.47v.05a4.56,4.56,0,0,1-1.58,3.8A7.14,7.14,0,0,1,421.55,39l-7.49.13Z" transform="translate(-1.25 -1.25)"/><path class="cls-2" d="M433.53,37.77a5.75,5.75,0,0,1-1.65-4.7,5.63,5.63,0,0,1,1.84-4.37,7.47,7.47,0,0,1,5.1-1.29l5.66.21.15,3.16-5.91-.22a3.34,3.34,0,0,0-2.31.59,2.63,2.63,0,0,0-.84,2.06,2.58,2.58,0,0,0,.92,2.28,5.24,5.24,0,0,0,3,.84,8.85,8.85,0,0,0,3.37-.35,1.57,1.57,0,0,0,1.16-1.45l.3,2.81A4.62,4.62,0,0,1,443,38.62a5.53,5.53,0,0,1-1.78.71,10.54,10.54,0,0,1-7.71-1.56Zm10.81-11a4.21,4.21,0,0,0-.93-3.08,3.88,3.88,0,0,0-2.92-1.19,7.79,7.79,0,0,0-2.35.27,7.18,7.18,0,0,0-2.06.94l-2.79-2.06a7.54,7.54,0,0,1,3.07-2,10.66,10.66,0,0,1,4.14-.6,9.4,9.4,0,0,1,4.21,1,6.05,6.05,0,0,1,2.59,2.64,8,8,0,0,1,.77,4l-.48,12.8-3.72-.14Z" transform="translate(-1.25 -1.25)"/><path class="cls-2" d="M455,20l3.9.36-1.84,19.85-3.9-.36Zm1.66,8.56,12.18,1.14-.33,3.51-12.18-1.13Zm10.89-7.39,3.9.36-1.85,19.85-3.9-.37Z" transform="translate(-1.25 -1.25)"/><path class="cls-2" d="M487.73,44l2.12-14,.38.57L478.71,42.6l-3.36-.5,3-19.7,3.83.59L480,37.3l-.38-.56,11.6-12.38,3.32.5-3,19.69Z" transform="translate(-1.25 -1.25)"/><path class="cls-2" d="M495.91,45.33l7.28-7.42,3.64,1.66-6.37,6.71ZM504.55,40a7.78,7.78,0,0,1-3.39-1.54,6,6,0,0,1-1.94-2.71,7,7,0,0,1,1.38-6.64,5.8,5.8,0,0,1,2.85-1.72,8,8,0,0,1,3.74-.05l6.92,1.45-.77,3.65-7.06-1.48a2.56,2.56,0,0,0-2,.34,2.76,2.76,0,0,0-1.11,1.79,3.06,3.06,0,0,0,0,1.48,2.37,2.37,0,0,0,.71,1.13,2.75,2.75,0,0,0,1.28.62l7.07,1.47-.77,3.65Zm3.51,7.89,4.07-19.51,3.84.8-4.08,19.51Z" transform="translate(-1.25 -1.25)"/><path class="cls-2" d="M538.83,39.3,549,29.83l4.21,1.25L540,42.94,529.19,53.08,525,51.83ZM538,42.88l-.3-1.09-4.51-16.66,4.22,1.25,3.23,12.82.31,1.17L545.63,58l-4.21-1.25Z" transform="translate(-1.25 -1.25)"/><path class="cls-2" d="M549.41,58a5.74,5.74,0,0,1-.16-5,5.66,5.66,0,0,1,3.07-3.62,7.44,7.44,0,0,1,5.25.31l5.34,1.91-.81,3-5.57-2a3.36,3.36,0,0,0-2.39-.13,2.65,2.65,0,0,0-1.41,1.71,2.58,2.58,0,0,0,.19,2.45,5.2,5.2,0,0,0,2.64,1.72,8.84,8.84,0,0,0,3.32.68,1.59,1.59,0,0,0,1.54-1l-.56,2.77a4.56,4.56,0,0,1-1.65.82,5.49,5.49,0,0,1-1.92.14,8.88,8.88,0,0,1-2.2-.51C551.78,60.48,550.22,59.39,549.41,58ZM563,50.78a4.22,4.22,0,0,0,0-3.22,3.93,3.93,0,0,0-2.43-2,7.94,7.94,0,0,0-2.32-.44,6.88,6.88,0,0,0-2.25.28l-2-2.81a7.53,7.53,0,0,1,3.53-1,10.74,10.74,0,0,1,4.13.67,9.41,9.41,0,0,1,3.71,2.25,6.09,6.09,0,0,1,1.68,3.29,8.27,8.27,0,0,1-.48,4.08l-4.31,12.06-3.51-1.25Z" transform="translate(-1.25 -1.25)"/><path class="cls-2" d="M575.22,47.57l3.61,1.52-7.74,18.37-3.61-1.53Zm-1,8.66L585.49,61l-1.37,3.26-11.27-4.76Zm12.61-3.77L590.44,54,582.7,72.35l-3.61-1.52Z" transform="translate(-1.25 -1.25)"/><path class="cls-2" d="M598.86,60.25,602.39,62,594.63,78l-3.52-1.7Zm-4.29-4.39,13.93,6.73L607,65.77,593,59Z" transform="translate(-1.25 -1.25)"/><path class="cls-2" d="M613.84,65.26l3.42,1.91-9.73,17.4-3.42-1.91Zm-6.25,15.08,5.29,3a2.54,2.54,0,0,0,2,.28,2.72,2.72,0,0,0,1.59-1.38,3,3,0,0,0,.42-1.41,2.31,2.31,0,0,0-.34-1.29,2.71,2.71,0,0,0-1-1l-5.3-3,1.82-3.25,5.16,2.88A7.81,7.81,0,0,1,620,77.67a6,6,0,0,1,1,3.17,7,7,0,0,1-3.3,5.92,5.91,5.91,0,0,1-3.24.79,7.82,7.82,0,0,1-3.58-1.08l-5.16-2.88Zm21.67-6.45,3.42,1.91L623,93.2l-3.42-1.92Z" transform="translate(-1.25 -1.25)"/><path class="cls-2" d="M644.91,93.12l-2,3.14L632,89.3l2-3.14Z" transform="translate(-1.25 -1.25)"/><path class="cls-2" d="M676.18,95.64l3,2.17-16.49,22.53-3.09-2.26,12.36-16.87-.58,1.1L656.46,111l-2.2-1.61,3.56-16.51,1.11-1.19-12.35,16.88-3.09-2.26L660,83.79,663,86l-4.28,19.72Z" transform="translate(-1.25 -1.25)"/><path class="cls-2" d="M668.8,123.81a5.71,5.71,0,0,1,1.58-4.73,5.61,5.61,0,0,1,4.13-2.32,7.42,7.42,0,0,1,4.82,2.11l4.35,3.63-1.82,2.59-4.53-3.8a3.36,3.36,0,0,0-2.2-1,2.71,2.71,0,0,0-1.92,1.11,2.6,2.6,0,0,0-.67,2.37,5.2,5.2,0,0,0,1.88,2.53,8.93,8.93,0,0,0,2.88,1.78,1.56,1.56,0,0,0,1.8-.44l-1.49,2.41a4.59,4.59,0,0,1-1.83.2,5.43,5.43,0,0,1-1.84-.54,8.61,8.61,0,0,1-1.89-1.24Q669.21,126.15,668.8,123.81Zm15.29-2.07a4.23,4.23,0,0,0,1.15-3,3.94,3.94,0,0,0-1.58-2.74,7.83,7.83,0,0,0-2-1.22,7.17,7.17,0,0,0-2.21-.52l-.94-3.34a7.6,7.6,0,0,1,3.66.29,10.89,10.89,0,0,1,3.64,2.07,9.46,9.46,0,0,1,2.69,3.39,6.07,6.07,0,0,1,.44,3.67,8,8,0,0,1-1.87,3.66l-8.22,9.82L676,131.43Z" transform="translate(-1.25 -1.25)"/><path class="cls-2" d="M696.65,123l2.86,2.67L685.89,140.2,683,137.52Zm-3.94,7.78,8.93,8.36-2.41,2.58-8.93-8.36Zm13.14.83,2.86,2.67-13.62,14.56-2.86-2.68Z" transform="translate(-1.25 -1.25)"/><path class="cls-2" d="M702,154.83a6.94,6.94,0,0,1,.09-4.18,10,10,0,0,1,2.67-4l2.37-2.27a9.66,9.66,0,0,1,4.05-2.47,6.84,6.84,0,0,1,4.15.09,10,10,0,0,1,4,2.66,10.84,10.84,0,0,1,1.76,2.38,8.91,8.91,0,0,1,.93,2.53,6.62,6.62,0,0,1,0,2.51l-3.78-.28a5.93,5.93,0,0,0-.3-2.45,5.61,5.61,0,0,0-1.27-2.06,4.68,4.68,0,0,0-3.34-1.66,4.84,4.84,0,0,0-3.44,1.57l-2.37,2.28a5.05,5.05,0,0,0-1.78,3.42,4.68,4.68,0,0,0,1.52,3.43,5.31,5.31,0,0,0,2,1.33,5.64,5.64,0,0,0,2.49.32v3.93a7.05,7.05,0,0,1-2.5-.15,8.86,8.86,0,0,1-2.48-1,11.57,11.57,0,0,1-2.28-1.85A9.87,9.87,0,0,1,702,154.83Z" transform="translate(-1.25 -1.25)"/><path class="cls-2" d="M720.59,176.31l10.72-9.25-.08.68-16.59,1.66-2.22-2.57,15.07-13,2.54,2.93-11,9.46.08-.67L736,163.69l2.2,2.55-15.08,13Z" transform="translate(-1.25 -1.25)"/><path class="cls-2" d="M734.4,193.66,745.63,185l-.12.67-16.66.71-2.07-2.69,15.79-12.13,2.37,3.08-11.49,8.81.11-.67,17-.88,2,2.67-15.8,12.12Zm14.81-22.45a7.9,7.9,0,0,1,3.22-4.27l1.92,2.5a5.16,5.16,0,0,0-1.89,2.25,2.18,2.18,0,0,0,.42,2.11l.21.28A2.18,2.18,0,0,0,755,175a5.09,5.09,0,0,0,2.67-1.24l1.92,2.5a8,8,0,0,1-5,2,5.28,5.28,0,0,1-4-2.36l-.21-.28A5.25,5.25,0,0,1,749.21,171.21Z" transform="translate(-1.25 -1.25)"/><path class="cls-2" d="M742.62,203.82a6.9,6.9,0,0,1,.77-4.11,10,10,0,0,1,3.29-3.49l2.71-1.86a9.84,9.84,0,0,1,4.39-1.78,6.89,6.89,0,0,1,4.08.78,10,10,0,0,1,3.47,3.27,11.12,11.12,0,0,1,1.35,2.63,8.61,8.61,0,0,1,.5,2.64,6.71,6.71,0,0,1-.4,2.49l-3.68-.9a5.89,5.89,0,0,0,.1-2.47,5.71,5.71,0,0,0-.91-2.24,4.76,4.76,0,0,0-3-2.18,4.92,4.92,0,0,0-3.66,1l-2.7,1.86a5,5,0,0,0-2.31,3.09,4.67,4.67,0,0,0,.93,3.63,5.22,5.22,0,0,0,1.81,1.65,5.79,5.79,0,0,0,2.4.72l-.65,3.87a7,7,0,0,1-2.44-.55,8.72,8.72,0,0,1-2.28-1.44,10.85,10.85,0,0,1-1.94-2.19A9.89,9.89,0,0,1,742.62,203.82Z" transform="translate(-1.25 -1.25)"/><path class="cls-2" d="M767.87,207l2,3.34-17,10.43-2.05-3.34Zm-6.66,11.17,3.32,1.54L759.87,232l-2.74-4.47Zm.77-5.32,3.77,6.14-3.18,1.95-3.77-6.14Zm1.72,3.58,10.07.18,2.47,4-14.53-.88Z" transform="translate(-1.25 -1.25)"/><path class="cls-2" d="M763.06,236.38a6.73,6.73,0,0,1,1.26-3.89,10.35,10.35,0,0,1,3.66-3.1l2.85-1.56a10.11,10.11,0,0,1,4.53-1.36,6.66,6.66,0,0,1,3.93,1.06,10.21,10.21,0,0,1,4.24,7.79,6.69,6.69,0,0,1-1.23,3.88,10.29,10.29,0,0,1-3.61,3.07l-2.9,1.58a10.27,10.27,0,0,1-4.55,1.38,6.86,6.86,0,0,1-3.94-1.06,9.13,9.13,0,0,1-3-3.41A9,9,0,0,1,763.06,236.38Zm7.15,4.77a5.31,5.31,0,0,0,3.71-.74l2.9-1.58a5.19,5.19,0,0,0,2.61-2.71,4.61,4.61,0,0,0-3-5.58,5.26,5.26,0,0,0-3.69.73l-2.9,1.58a5.32,5.32,0,0,0-2.63,2.72,4.56,4.56,0,0,0,3,5.58Z" transform="translate(-1.25 -1.25)"/><path class="cls-2" d="M788.75,243.85l1.71,3.53-18,8.68-1.71-3.53Zm.84,1.73,4.72,9.77L791,257l-4.72-9.77Z" transform="translate(-1.25 -1.25)"/><path class="cls-2" d="M779.21,268.67a6.71,6.71,0,0,1,1.62-3.75,10.4,10.4,0,0,1,3.93-2.74l3-1.28a10.1,10.1,0,0,1,4.65-.94,6.7,6.7,0,0,1,3.81,1.42,10.32,10.32,0,0,1,3.5,8.16,6.72,6.72,0,0,1-1.6,3.74,10.16,10.16,0,0,1-3.88,2.72l-3,1.3a10.21,10.21,0,0,1-4.66.95,6.77,6.77,0,0,1-3.82-1.42,9.18,9.18,0,0,1-2.69-3.68A9.06,9.06,0,0,1,779.21,268.67Zm6.67,5.43a5.32,5.32,0,0,0,3.76-.4l3-1.3a5.26,5.26,0,0,0,2.86-2.45,4.62,4.62,0,0,0-2.51-5.84,5.21,5.21,0,0,0-3.74.39l-3,1.3a5.32,5.32,0,0,0-2.87,2.45,4.58,4.58,0,0,0,2.5,5.85Z" transform="translate(-1.25 -1.25)"/><path class="cls-2" d="M790.51,295.6a5.71,5.71,0,0,1,3.81-3.21,5.62,5.62,0,0,1,4.74.18,7.44,7.44,0,0,1,3,4.31l1.8,5.37-2.9,1.26-1.88-5.61a3.25,3.25,0,0,0-1.38-1.95,3.1,3.1,0,0,0-4,1.61,5.27,5.27,0,0,0,.28,3.14,9.07,9.07,0,0,0,1.52,3,1.58,1.58,0,0,0,1.78.57l-2.53,1.27a4.5,4.5,0,0,1-1.67-.78,5.53,5.53,0,0,1-1.29-1.42,8.66,8.66,0,0,1-1-2.05Q789.64,297.82,790.51,295.6Zm14.11,6.22a4.2,4.2,0,0,0,2.55-2,3.94,3.94,0,0,0,.09-3.16,7.86,7.86,0,0,0-1.09-2.09,6.78,6.78,0,0,0-1.61-1.6l.94-3.34a7.54,7.54,0,0,1,3,2.16,10.81,10.81,0,0,1,2,3.66,9.53,9.53,0,0,1,.52,4.3,6.05,6.05,0,0,1-1.55,3.36,8.18,8.18,0,0,1-3.5,2.15l-12.14,4.07-1.19-3.53Z" transform="translate(-1.25 -1.25)"/><path class="cls-2" d="M814.68,309.41l1,3.76-19.22,5.31-1-3.75ZM799.49,316l2,7.1a2.4,2.4,0,0,0,1.11,1.57,2.56,2.56,0,0,0,2,.12l0,0a2.73,2.73,0,0,0,1.7-1.13,2.32,2.32,0,0,0,.19-1.92l-2-7.11,3.41-.94,2,7.11a2.2,2.2,0,0,0,.9,1.35,1.88,1.88,0,0,0,1.51.14,2.35,2.35,0,0,0,1.44-1,1.94,1.94,0,0,0,.16-1.6l-2-7.14,3.4-.95,2,7.28a6.48,6.48,0,0,1-.09,4.51,4.51,4.51,0,0,1-3.12,2.45,4.14,4.14,0,0,1-3.2-.29,5.44,5.44,0,0,1-2.3-2.67,5.93,5.93,0,0,1-.83,3.82,5.11,5.11,0,0,1-3,2.11l-.06,0a4.59,4.59,0,0,1-4.07-.58,7.17,7.17,0,0,1-2.52-4.11l-2-7.22Z" transform="translate(-1.25 -1.25)"/><path class="cls-2" d="M819,334.42l.86,3.82-17.41,3.91-.86-3.82Zm.78-6.1,3.39,15.1-3.45.78-3.39-15.1Z" transform="translate(-1.25 -1.25)"/><path class="cls-2" d="M805.69,354.27a6.65,6.65,0,0,1,2.44-3.28,10.42,10.42,0,0,1,4.46-1.76l3.2-.55a10.15,10.15,0,0,1,4.73.16,6.67,6.67,0,0,1,3.38,2.27,9.19,9.19,0,0,1,1.75,4.2,9.08,9.08,0,0,1-.24,4.54,6.58,6.58,0,0,1-2.41,3.27,10.25,10.25,0,0,1-4.41,1.75l-3.25.57a10.36,10.36,0,0,1-4.75-.16A6.8,6.8,0,0,1,807.2,363a9.13,9.13,0,0,1-1.76-4.2A9,9,0,0,1,805.69,354.27Zm5.23,6.82a5.34,5.34,0,0,0,3.75.49l3.26-.57a5.21,5.21,0,0,0,3.34-1.72,4.61,4.61,0,0,0-1.08-6.26,5.23,5.23,0,0,0-3.73-.49l-3.26.56a5.27,5.27,0,0,0-3.36,1.72,4.57,4.57,0,0,0,1.08,6.27Z" transform="translate(-1.25 -1.25)"/><path class="cls-2" d="M827.67,369.7l.45,3.9-19.8,2.29-.45-3.89Zm1.46,12.52.45,3.89-19.8,2.3-.46-3.89Zm-9.49-9.13,1.41,12.15-3.51.41-1.41-12.15Z" transform="translate(-1.25 -1.25)"/><path class="cls-2" d="M811.18,397.31a6.74,6.74,0,0,1,2.8-3,10.46,10.46,0,0,1,4.63-1.25l3.23-.19a10.17,10.17,0,0,1,4.69.69,6.66,6.66,0,0,1,3.1,2.63,10.28,10.28,0,0,1,.53,8.86,6.62,6.62,0,0,1-2.76,3,10.3,10.3,0,0,1-4.57,1.25l-3.3.19a10.26,10.26,0,0,1-4.71-.69,6.67,6.67,0,0,1-3.11-2.63,9,9,0,0,1-1.28-4.37A9.09,9.09,0,0,1,811.18,397.31Zm4.44,7.36a5.34,5.34,0,0,0,3.68.9l3.29-.19a5.27,5.27,0,0,0,3.52-1.34,4.6,4.6,0,0,0-.38-6.34,5.24,5.24,0,0,0-3.65-.91l-3.3.2a5.28,5.28,0,0,0-3.53,1.33,4.57,4.57,0,0,0,.37,6.35Z" transform="translate(-1.25 -1.25)"/><path class="cls-2" d="M831.44,430l.06,3.47-19.93.33-.06-3.54,14.08-.23-1.23.22-9-4.72,0-2.34,8.89-5,1.23.17-14.08.23-.05-3.54,19.93-.32,0,3.48-10.92,6.07Z" transform="translate(-1.25 -1.25)"/><path class="cls-2" d="M830.41,453.37l-.23,3.91-19.9-1.15.23-3.91Zm.73-12.58-.23,3.91L811,443.55l.23-3.91Zm-8.5,1.95L821.93,455l-3.53-.21.71-12.21Z" transform="translate(-1.25 -1.25)"/><path class="cls-2" d="M810.13,465.15a6.71,6.71,0,0,1,3.27-2.46,10.51,10.51,0,0,1,4.78-.44l3.22.37a10.28,10.28,0,0,1,4.5,1.49,6.72,6.72,0,0,1,2.6,3.13,10.25,10.25,0,0,1-1,8.82,6.68,6.68,0,0,1-3.23,2.46,10.41,10.41,0,0,1-4.72.44l-3.28-.38a10.15,10.15,0,0,1-4.52-1.49,6.68,6.68,0,0,1-2.61-3.13,9,9,0,0,1-.51-4.52A9.09,9.09,0,0,1,810.13,465.15Zm3.11,8a5.35,5.35,0,0,0,3.46,1.53l3.28.37a5.22,5.22,0,0,0,3.7-.71,4.61,4.61,0,0,0,.72-6.31,5.22,5.22,0,0,0-3.44-1.52l-3.28-.38a5.29,5.29,0,0,0-3.72.71,4.56,4.56,0,0,0-.72,6.31Z" transform="translate(-1.25 -1.25)"/><path class="cls-2" d="M826.85,486.05l-.63,3.87-19.67-3.22.63-3.87Zm-.31,1.9-1.75,10.71-3.68-.61,1.76-10.7Z" transform="translate(-1.25 -1.25)"/><path class="cls-2" d="M804.78,500.87a6.7,6.7,0,0,1,3.48-2.15,10.46,10.46,0,0,1,4.79,0l3.18.67a10.19,10.19,0,0,1,4.34,1.9,6.72,6.72,0,0,1,2.3,3.36,10.27,10.27,0,0,1-1.83,8.68,6.65,6.65,0,0,1-3.45,2.15,10.23,10.23,0,0,1-4.74,0l-3.23-.68a10.29,10.29,0,0,1-4.36-1.91,6.73,6.73,0,0,1-2.31-3.36,10.18,10.18,0,0,1,1.83-8.68Zm2.34,8.27a5.31,5.31,0,0,0,3.3,1.84l3.23.68a5.24,5.24,0,0,0,3.75-.36,4.63,4.63,0,0,0,1.31-6.22,5.23,5.23,0,0,0-3.29-1.84l-3.23-.68a5.28,5.28,0,0,0-3.76.36,4.55,4.55,0,0,0-1.31,6.22Z" transform="translate(-1.25 -1.25)"/><path class="cls-2" d="M797.39,531.49a6.76,6.76,0,0,1,3.65-1.85,10.43,10.43,0,0,1,4.77.41l3.11.93a10.15,10.15,0,0,1,4.17,2.25,6.72,6.72,0,0,1,2,3.53,10.29,10.29,0,0,1-2.53,8.51,6.79,6.79,0,0,1-3.62,1.86,10.2,10.2,0,0,1-4.72-.4l-3.17-.94a10.29,10.29,0,0,1-4.19-2.26,6.69,6.69,0,0,1-2-3.53,10.18,10.18,0,0,1,2.53-8.51Zm1.66,8.44a5.35,5.35,0,0,0,3.14,2.11l3.16.94a5.31,5.31,0,0,0,3.77-.05,4.63,4.63,0,0,0,1.81-6.1,5.29,5.29,0,0,0-3.12-2.1l-3.17-.94a5.28,5.28,0,0,0-3.78.05,4.56,4.56,0,0,0-1.81,6.09Z" transform="translate(-1.25 -1.25)"/><path class="cls-2" d="M797.34,556.84l.87,3.55-12.54,4.11,1.76-4.93ZM810.22,555l-1.32,3.69L790.12,552l1.32-3.69ZM802,554.1l-2.42,6.79L796,559.63l2.42-6.78Zm-1.71,3.59,6.18,8-1.59,4.45-8.42-11.88Z" transform="translate(-1.25 -1.25)"/><path class="cls-2" d="M803,574.69l-1.51,3.62L775.64,567.5l1.52-3.62Zm-20-2.21a5.19,5.19,0,0,1,3.11-.9l3.74,1.85a4.63,4.63,0,0,0-2.19-.41,3.19,3.19,0,0,0-1.79.69,4.5,4.5,0,0,0-1.27,1.78,3.82,3.82,0,0,0-.06,3.22A4.78,4.78,0,0,0,787.2,581l4,1.67a5,5,0,0,0,3.54.33,3.83,3.83,0,0,0,2.28-2.31,4.49,4.49,0,0,0,.39-2.13,3.11,3.11,0,0,0-.73-1.76,4.62,4.62,0,0,0-1.8-1.25l3.7,1.11a7,7,0,0,1,1.58,3.22,5.81,5.81,0,0,1-.38,3.36,6.61,6.61,0,0,1-2.27,3,5.88,5.88,0,0,1-3.45,1,11,11,0,0,1-4.36-1l-4-1.67a10.66,10.66,0,0,1-3.7-2.42,6,6,0,0,1-1.63-3.24,7.06,7.06,0,0,1,.56-3.81A5.86,5.86,0,0,1,783,572.48Z" transform="translate(-1.25 -1.25)"/><path class="cls-2" d="M787.94,608.3,769.41,590a5.79,5.79,0,0,1-1.43-2,4.12,4.12,0,0,1-.24-2.15,9.1,9.1,0,0,1,.85-2.58l.34-.71,3.39,1.62-.34.71a3.08,3.08,0,0,0-.35,1.76,3.52,3.52,0,0,0,.89,1.67l17.15,16.36Zm7.61-15.92-1.72,3.6L775.56,594l-2.9-3.79Z" transform="translate(-1.25 -1.25)"/><path class="cls-2" d="M786,611.88l-1.85,3.45-17.58-9.4,1.85-3.46Zm-.91,1.69L780,623.14l-3.29-1.76,5.12-9.57Z" transform="translate(-1.25 -1.25)"/><path class="cls-2" d="M765.68,633.08a4.16,4.16,0,0,0,3.15.67,3.93,3.93,0,0,0,2.45-2,7.48,7.48,0,0,0,.89-2.19,6.73,6.73,0,0,0,.16-2.26l3.16-1.45a7.51,7.51,0,0,1,.28,3.65,10.91,10.91,0,0,1-1.46,3.93,9.5,9.5,0,0,1-2.93,3.19,6.11,6.11,0,0,1-3.56,1,8.29,8.29,0,0,1-3.91-1.27l-11-6.58,1.92-3.2Zm-4.44-14.76a5.71,5.71,0,0,1,4.91.81,5.62,5.62,0,0,1,3,3.72,7.45,7.45,0,0,1-1.33,5.09l-2.91,4.86L762,631.41l3-5.07a3.33,3.33,0,0,0,.6-2.32,2.66,2.66,0,0,0-1.4-1.72,2.59,2.59,0,0,0-2.45-.29,5.26,5.26,0,0,0-2.2,2.25,9,9,0,0,0-1.31,3.12,1.59,1.59,0,0,0,.72,1.72L756.41,628a4.42,4.42,0,0,1-.48-1.78,5.58,5.58,0,0,1,.23-1.91,9.7,9.7,0,0,1,.93-2.06Q759,619.1,761.24,618.32Z" transform="translate(-1.25 -1.25)"/><path class="cls-2" d="M746.35,660.57l-3-2.16,7.46-10.52,3,2.15Z" transform="translate(-1.25 -1.25)"/><path class="cls-2" d="M718.17,678.38a8.73,8.73,0,0,1,5-.25,11.57,11.57,0,0,1,4.88,2.62l6,5.17a11.47,11.47,0,0,1,3.29,4.46,8.75,8.75,0,0,1,.48,5,11,11,0,0,1-6.74,7.79,8.78,8.78,0,0,1-5,.24,11.47,11.47,0,0,1-4.89-2.61l-6-5.18a11.44,11.44,0,0,1-3.29-4.45,8.67,8.67,0,0,1-.48-5,11,11,0,0,1,6.73-7.79Zm-2.81,8.39a5.16,5.16,0,0,0,.34,3,7.14,7.14,0,0,0,2,2.71l6.19,5.35a7.26,7.26,0,0,0,3,1.62,5.27,5.27,0,0,0,3-.09,6,6,0,0,0,2.58-1.8,5.88,5.88,0,0,0,1.4-2.81,5.21,5.21,0,0,0-.34-3,7.27,7.27,0,0,0-2-2.71l-6.18-5.35a7.28,7.28,0,0,0-3-1.63,5.18,5.18,0,0,0-3,.1,6.32,6.32,0,0,0-4,4.6Zm9-17.06,2.57-3L748.07,685l-2.57,3Zm13.46,8.46-7.1,8.21-2.82-2.44,7.1-8.21Z" transform="translate(-1.25 -1.25)"/><path class="cls-2" d="M717.85,706.87l-2.75,2.79-14.18-14,2.75-2.79Zm-1.35,1.37L708.88,716l-2.65-2.62,7.62-7.72Z" transform="translate(-1.25 -1.25)"/><path class="cls-2" d="M688.26,708.81a5.22,5.22,0,0,1,3.2.49l2.63,3.25a4.75,4.75,0,0,0-1.82-1.3,3.16,3.16,0,0,0-1.92-.12,4.36,4.36,0,0,0-1.89,1.08,3.86,3.86,0,0,0-1.41,2.91,4.76,4.76,0,0,0,1.47,3.17l2.92,3.18a4.92,4.92,0,0,0,3.08,1.78,3.74,3.74,0,0,0,3-1.14,4.51,4.51,0,0,0,1.26-1.77,3.08,3.08,0,0,0,.06-1.9,4.44,4.44,0,0,0-1.11-1.89l2.9,2.55a7.08,7.08,0,0,1,.09,3.59,5.8,5.8,0,0,1-1.75,2.89,6.58,6.58,0,0,1-3.31,1.75,5.93,5.93,0,0,1-3.57-.49,11.06,11.06,0,0,1-3.55-2.7l-2.94-3.2a10.61,10.61,0,0,1-2.34-3.74,6,6,0,0,1-.13-3.63,7.09,7.09,0,0,1,2.1-3.22A5.94,5.94,0,0,1,688.26,708.81Zm17.26,10.39-2.88,2.65-19-20.64,2.88-2.66Z" transform="translate(-1.25 -1.25)"/><path class="cls-2" d="M675.36,745.26l-3.05,2.47-12.55-15.48,3-2.47Zm2-22.51-4.72,3.82a2.54,2.54,0,0,0-1,1.78,2.71,2.71,0,0,0,.69,2,3,3,0,0,0,1.16.92,2.38,2.38,0,0,0,1.32.16,2.71,2.71,0,0,0,1.29-.6l4.71-3.82,2.35,2.89-4.59,3.73a8,8,0,0,1-3.33,1.66,6,6,0,0,1-3.33-.22,7.05,7.05,0,0,1-4.28-5.26,5.91,5.91,0,0,1,.47-3.3,7.85,7.85,0,0,1,2.33-2.92l4.59-3.73Zm11.68,11.39-3,2.47-12.55-15.49,3-2.47Z" transform="translate(-1.25 -1.25)"/></svg>