<svg id="Layer_1" data-name="Layer 1" xmlns="http://www.w3.org/2000/svg" viewBox="0 0 849.89 849.89"><defs><style>.cls-1{fill:#f9ec8e;}.cls-2{fill:#231f20;}.cls-3{fill:#18264b;}.cls-4{fill:#fff;}</style></defs><path class="cls-1" d="M425.2,848.14A423.05,423.05,0,0,1,260.57,35.49,423.05,423.05,0,0,1,589.83,814.9,420.26,420.26,0,0,1,425.2,848.14Z" transform="translate(-0.25 -0.25)"/><path class="cls-2" d="M425.2,4.25c232.48,0,420.94,188.47,420.94,421S657.68,846.14,425.2,846.14,4.25,657.68,4.25,425.2,192.72,4.25,425.2,4.25m0-4a425.06,425.06,0,0,0-165.41,816.5A425.06,425.06,0,0,0,590.61,33.65,422.34,422.34,0,0,0,425.2.25Z" transform="translate(-0.25 -0.25)"/><path class="cls-3" d="M425.2,803a377.94,377.94,0,0,1-147.08-726,377.94,377.94,0,0,1,294.15,696.3A375.49,375.49,0,0,1,425.2,803Z" transform="translate(-0.25 -0.25)"/><path class="cls-2" d="M425.2,49.35A375.95,375.95,0,0,1,571.49,771.51,375.94,375.94,0,0,1,278.9,78.89,373.5,373.5,0,0,1,425.2,49.35m0-4C215.42,45.35,45.35,215.42,45.35,425.2S215.42,805,425.2,805,805,635,805,425.2,635,45.35,425.2,45.35Z" transform="translate(-0.25 -0.25)"/><rect class="cls-1" x="224.16" y="524.75" width="401.57" height="24.89"/><polygon class="cls-1" points="224.16 524.75 295.02 549.65 251.72 612.5 141.48 612.5 224.16 524.75"/><polygon class="cls-1" points="625.73 524.75 554.87 549.65 598.17 612.5 708.41 612.5 625.73 524.75"/><polygon class="cls-1" points="554.87 582.66 295.02 582.66 311.17 559.64 538.72 559.64 554.87 582.66"/><rect class="cls-4" x="224.16" y="292.91" width="27.56" height="216.04"/><rect class="cls-4" x="298.96" y="292.91" width="27.56" height="216.04"/><rect class="cls-4" x="373.76" y="292.91" width="27.56" height="216.04"/><rect class="cls-4" x="448.57" y="292.91" width="27.56" height="216.04"/><rect class="cls-4" x="523.37" y="292.91" width="27.56" height="216.04"/><rect class="cls-4" x="598.17" y="292.91" width="27.56" height="216.04"/><rect class="cls-1" x="224.16" y="255.45" width="401.57" height="23.2"/><polygon class="cls-1" points="204.47 255.45 424.94 203.74 424.94 180.09 204.47 231.93 204.47 255.45"/><polygon class="cls-1" points="424.94 203.74 645.42 255.45 645.42 231.93 424.94 180.09 424.94 203.74"/><rect class="cls-1" x="204.47" y="235.34" width="47.24" height="23.52"/><rect class="cls-1" x="598.23" y="235.42" width="47.19" height="23.44"/></svg>